<?xml version="1.0" encoding="UTF-8"?>
<svg width="1200pt" height="1200pt" version="1.1" viewBox="0 0 1200 1200" xmlns="http://www.w3.org/2000/svg">
 <path d="m477.55 898.12c5.6719-11.391 11.426-22.742 16.992-34.184 9.2266-18.969 19.258-37.617 27.23-57.102 8.3633-20.445 14.953-41.637 21.855-62.652v-0.003906c7.5898-22.293 19.668-42.797 35.492-60.246 4.1836-4.2617 9.2188-7.5938 14.781-9.7695 8.6172-3.7695 13.664 2.8008 11.406 15.445h0.003906c8.6758-2.8594 17.539-5.1016 26.531-6.7188 5.1992-0.59766 10.402 1.1055 14.242 4.6602 1.6445 4.6719 1.0078 9.8398-1.7227 13.969-20.062 30.379-49.996 50.711-76.777 74.273h-0.003907c-12.035 9.3008-23.145 19.75-33.16 31.199-9.6406 13.766-17.934 28.43-24.766 43.781-11.684 23.68-23 47.574-33.352 71.852l-0.003907 0.003906c-3.0781 8.3008-4.6016 17.098-4.4961 25.953-0.70313 27.426-0.6875 54.871-0.66797 82.309 0.007812 13.145 0.69531 26.285 0.92969 39.43-0.18359 1.7852-0.58984 3.5469-1.2031 5.2344l-2.6484 0.44141c-1.5781-4.2695-2.8359-8.6523-3.7578-13.109-2.5703-18.984-3.9805-38.16-7.3047-57-3.3789-21.539-8.1719-42.828-14.348-63.738-5.3398-12.562-11.977-24.535-19.801-35.723-0.65625-0.73828-1.2695-1.5156-1.8359-2.332-11.816-29.012-23.891-57.93-35.094-87.18v0.003906c-1.9844-6.0195-2.207-12.48-0.64062-18.621 1.7031-4.7188 4.9609-8.7188 9.2344-11.34 5.5312-3.7188 12.395-5.4023 18.191-8.8008 9.918-5.8125 17.176-4 18.992 7.4102 2.3242 16.324 3.7344 32.762 4.2227 49.242 1.0352 22.488 0.41797 45.086 2.2695 67.492 2.1367 9.2422 5.2578 18.23 9.3164 26.805 4.9883 15.676 9.5391 31.488 15.18 50.27 1.2578-20.957 2.6484-39.066 3.375-57.207 1.2578-50.945 7.8516-101.62 19.676-151.19 0.71875-1.875 0.90625-3.9062 0.55078-5.8789-6.7773-18.203 0.82031-36.504-0.59766-54.648-0.97266-24.371-3.6133-48.645-7.9062-72.648-5.793-19.242-13.016-38.023-21.617-56.188-8.8945-20.895-16.672-42.25-23.305-63.973-0.19531-9.4062 2.4883-18.652 7.6914-26.492 4.4219-1.5117 9.2031-1.5977 13.676-0.24219 2.4805 1.7852 4.5117 4.125 5.9297 6.832 3.1016-5.5586 6.5547-10.91 10.336-16.027 2.2344-3.0547 5.6289-5.0547 9.3828-5.5234 3.5664 1.1875 6.3477 4.0117 7.4883 7.5938 2.082 7.2812 3.1797 14.812 3.2578 22.387-0.28906 39.02 0.035156 78.109-2.4258 117.01 0.12891 10.844 0.9375 21.668 2.4219 32.41 1.3398 24.328 1.5547 48.723 2.1719 73.09-0.25391 2.4297 0.10156 4.8828 1.0391 7.1367 3.4023-11.598 7.2109-23.094 10.133-34.809 14.789-59.281 27.574-119.14 44.609-177.76 11.195-38.535 28.402-75.328 42.918-112.9h0.003907c0.14453-0.64844 0.39844-1.2695 0.75781-1.8281 18.988-20.719 13.23-45.645 10.773-69.418-2.1953-21.254-8.5156-42.113-10.211-63.371-0.78906-15.801 0.46484-31.641 3.7227-47.125 2.1914-11.988 9.3906-13.57 20.008-6.1992v0.003907c4.4258-3.043 9.6133-4.7812 14.977-5.0234 3.707 2.5 6.1445 6.4844 6.6836 10.918 1.7305 18.824-0.125 37.801-5.4688 55.93-5.957 17.809-10.801 36.035-15.176 54.305v0.003906c-0.85547 6.7539-0.9375 13.582-0.24609 20.352l2.7109 0.69922c4.0898-7.5625 7.7656-15.391 12.352-22.641 14.102-22.309 28.57-44.383 42.855-66.574 7.1875-9.8984 13.672-20.289 19.41-31.098 6.543-14.25 10.414-29.695 16.328-44.266h-0.003906c9.6875-24.684 25.223-46.641 45.27-63.992 1.0117-0.86328 2.0938-1.6328 3.2383-2.3047 5.0508-2.9648 10.332-7.8828 15.934-1.8945s-0.82422 10.082-3.6289 14.484c-2.5234 3.3008-4.5469 6.957-6 10.852 9.3359-4.3125 18.605-8.7734 28.035-12.875 4.5117-2.0312 9.2227-3.5859 14.055-4.6445 2.4961-0.43359 5.0508 0.32422 6.9062 2.043 1 2.293 0.80859 4.9336-0.51172 7.0586-12.465 18.398-28.02 34.5-45.969 47.605-17.297 11.629-34.59 23.336-51.09 36.043h0.003906c-6.3477 5.7305-11.875 12.312-16.422 19.555-11.449 15.633-21.793 32.133-33.945 47.184-23.164 28.695-36.719 62.746-54.086 94.625-13.988 25.102-26.422 51.039-37.234 77.664-12.184 30.879-21.297 62.965-31.746 94.527l3.3047 2.4805c3.168-3.8086 6.3164-7.6328 9.5078-11.422h0.003906c12.902-12.844 24.469-26.969 34.516-42.156 9.8945-18.492 27.461-28.543 39.512-44.148 12.129-15.707 23.57-31.973 36.246-47.215v0.003906c8.7148-11.234 18.742-21.383 29.867-30.234 11.008-7.1602 22.855-12.926 35.277-17.172 5.5664-2.25 9.1836 1.5664 7.5742 7.5938-1.8945 5.8555-4.1055 11.602-6.625 17.215 6.2969-0.69531 12.629-1.0703 18.965-1.1328 3.375-0.17578 6.6719 1.0312 9.1406 3.3359 0.94922 3.7578 0.078125 7.7461-2.3555 10.762-9.2227 7.8438-19.242 14.688-29.898 20.426-26.043 12.758-52.848 23.949-79.117 36.254-23.605 11.059-38.473 31.742-54.668 50.949-12.988 15.402-27.047 29.938-39.449 45.777-9.25 9.7266-16.164 21.43-20.215 34.223-13.875 59.516-29.395 118.65-43.176 178.18h-0.003906c-8.9961 34.875-14.086 70.645-15.168 106.64-0.03125 5.4375-0.79688 10.867-1.2227 16.301zm71.234-117.75 0.87109 0.76953c9.1367-7.5781 18.398-15.008 27.383-22.758 20.73-17.895 43.551-33.691 58.688-57.266 1.4336-3.0312 2.4648-6.2383 3.0742-9.5352-3.4688-0.69141-7.0078-1-10.547-0.91797-15.43 3.2539-28.613 13.203-35.973 27.148-14.516 20.844-29.012 41.695-43.496 62.559zm-68.406-159.93c1.2266-45.578 8.832-91.012-0.35547-136.43l0.003906-0.003906c-8.9258 7.418-13.926 18.543-13.547 30.141 2.8242 22.234 4.5938 44.605 7.3555 66.852 1.6406 13.211 4.3281 26.293 6.5469 39.438zm324.74-476.97c-41.281 9.4141-63.32 38.59-83.137 70.367 29.211-20.617 61.652-37.379 83.137-70.371zm-261.34 627.02c0.88281-0.42578 1.6914-0.98047 2.3984-1.6523 15.785-22.402 31.82-44.637 47.027-67.426 2.5586-5.5898 4.2422-11.547 4.9844-17.652l-3.75-1.3359c-30.102 21.312-41.414 53.852-50.66 88.066zm-118.75 117.33 3.3008-0.46484c0-28.973 0.11719-57.949-0.13281-86.922l0.003907-0.003906c0.074219-4.3125-1.0078-8.5664-3.1328-12.324-2.3867-2.0156-5.4297-3.0859-8.5547-3.0156-2.8828 3.957-4.6211 8.6328-5.0195 13.512 1.4805 16 4.0898 31.906 6.5469 47.805 2.1406 13.832 4.6445 27.609 6.9922 41.414zm308.79-508.09c-30.914 4.2109-55.777 31.949-76.922 65.973 19.449-13.754 39.789-27.207 58.941-42.18h0.003907c6.9453-7.1641 12.984-15.156 17.98-23.793zm-272.01 199.23 4.0195-1.4375c-7.7461-26.773 0.30469-56.992-17.941-82.66-3.6523 2.7734-6.3711 6.5977-7.793 10.957s-1.4844 9.0508-0.17188 13.445c6.5547 20.137 14.5 39.824 21.887 59.695zm152.57-264.82c12.004-25.301 17.93-53.055 17.312-81.051-0.76172-2.9023-1.9805-5.6641-3.6094-8.1797-2.2656 1.5625-4.1367 3.6328-5.4648 6.043-1.8203 8.9531-3.1445 18.004-3.9688 27.102-1.6641 18.676-2.8711 37.391-4.2695 56.086zm138.37 90.625-1.9023-4.6094h0.003906c-9.1484 1.5703-18.023 4.4414-26.355 8.5234-16.203 11.043-30.98 24.184-46.34 36.469 24.383-14.262 54.184-18.965 74.594-40.383zm-36.781-204.36 2.2852 2.1406 49.094-67.016-2.5352-1.8672c-23.277 17.043-36.152 41.824-48.844 66.742zm-106.65 24.812c-12.445 9.3516-12.375 54.285-3.9961 73.715-1.0234-25.664 7.6875-48.602 3.9961-73.715zm-210.73 569.75c-8.6211 5.8945-5.9922 31.582 4.1406 48.16z"/>
</svg>
